<svg width="4400" height="2480" xmlns="http://www.w3.org/2000/svg" xmlns:xlink="http://www.w3.org/1999/xlink" xml:space="preserve" overflow="hidden"><g><path d="M0 473.977 398.75 720.081 802.083 569.684 1200.83 597.029 1599.58 742.868 1998.33 742.868 2401.67 765.655 2800.42 793 3199.17 619.816 3597.92 473.977 4001.25 569.684 4400 669.948 4400 0 4001.25 0 3597.92 0 3199.17 0 2800.42 0 2401.67 0 1998.33 0 1599.58 0 1200.83 0 802.083 0 398.75 0 0 0Z" fill="#22273C" fill-rule="evenodd"/><path d="M0 847.861 398.75 893.628 802.083 971.431 1200.83 994.314 1599.58 943.971 1998.33 1095 2401.67 1067.54 2800.42 1017.2 3199.17 847.861 3597.92 673.949 4001.25 870.744 4400 870.744 4400 664.795 4001.25 564.109 3597.92 468 3199.17 614.452 2800.42 788.365 2401.67 760.905 1998.33 738.022 1599.58 738.022 1200.83 591.569 802.083 564.109 398.75 715.139 0 468Z" fill="#232744" fill-rule="evenodd"/><path d="M0 1045.24 398.75 1141.44 802.083 1315.52 1200.83 1416.31 1599.58 1388.82 1998.33 1540 2401.67 1365.92 2800.42 1292.62 3199.17 1191.83 3597.92 1168.93 4001.25 1315.52 4400 1168.93 4400 861.99 4001.25 861.99 3597.92 665 3199.17 839.084 2800.42 1008.59 2401.67 1058.98 1998.33 1086.47 1599.58 935.288 1200.83 985.681 802.083 962.775 398.75 884.895 0 839.084Z" fill="#242850" fill-rule="evenodd"/><path d="M0 1636.37 398.75 1810.52 802.083 1590.54 1200.83 1686.78 1599.58 1961.76 1998.33 2058 2401.67 1663.87 2800.42 1787.61 3199.17 1613.45 3597.92 1737.19 4001.25 1686.78 4400 1838.02 4400 1159.74 4001.25 1306.39 3597.92 1159.74 3199.17 1182.65 2800.42 1283.48 2401.67 1356.81 1998.33 1530.96 1599.58 1379.72 1200.83 1407.22 802.083 1306.39 398.75 1132.24 0 1036Z" fill="#262961" fill-rule="evenodd"/><path d="M0 2480 398.75 2480 802.083 2480 1200.83 2480 1599.58 2480 1998.33 2480 2401.67 2480 2800.42 2480 3199.17 2480 3597.92 2480 4001.25 2480 4400 2480 4400 1828.68 4001.25 1677.32 3597.92 1727.78 3199.17 1603.93 2800.42 1778.23 2401.67 1654.39 1998.33 2048.85 1599.58 1952.53 1200.83 1677.32 802.083 1581 398.75 1801.16 0 1626.87Z" fill="#25296D" fill-rule="evenodd"/></g></svg>